<?xml version="1.0" encoding="utf-8"?>
<!-- Generator: Adobe Illustrator 24.0.2, SVG Export Plug-In . SVG Version: 6.00 Build 0)  -->
<svg version="1.1" id="Capa_1" xmlns="http://www.w3.org/2000/svg" xmlns:xlink="http://www.w3.org/1999/xlink" x="0px" y="0px"
	 viewBox="0 0 500 500" style="enable-background:new 0 0 500 500;" xml:space="preserve">
<style type="text/css">
	.st0{font-family:'CooperBlack';}
	.st1{font-size:294.2412px;}
</style>
<text transform="matrix(1.1669 0 0 1 152.8076 277.7568)" class="st0 st1">$</text>
<g>
	<g>
		<path d="M414.98,356.98c2.93-14.2-6.47-22.21-30.58-31.92l-10.5-4.21c-29.78-11.98-45.87-26.3-41.21-48.84
			c4.75-22.99,33.37-38.14,67.87-34.15c30.3,3.5,51.51,19.8,49.31,39.39c-3.38,4.46-8.94,6.12-14.64,5.46
			c-6.6-0.76-13.45-4.79-14.63-16.92l-1.56-17.72l13.92,9.92c-11.81-5.29-22.38-7.66-31.38-8.7c-22.2-2.57-41.02,3.79-44.51,20.7
			c-2.98,14.42,7.39,23.7,27.62,31.34l10.8,4.25c38.31,15.28,47.59,31.35,43.77,49.83c-4.98,24.11-33.11,38.4-73.91,33.68
			c-32.1-3.71-53.66-19.82-50.81-39.56c3.63-4.2,8.34-6.19,14.94-5.43c7.2,0.83,13.19,4.53,14.33,16.89l1.56,17.72l-14.23-9.95
			c12.96,5.65,26.23,8.34,37.93,9.69C393.68,381.29,411.53,373.66,414.98,356.98z M379.43,313.42l12,1.39l-20.33,98.49l-12-1.39
			L379.43,313.42z M379.73,313.45l19.91-96.46l12,1.39l-19.91,96.46L379.73,313.45z"/>
	</g>
</g>
<g>
	<g>
		<path d="M173.58,350.36c-6.46-13.53-19.82-17.22-47.2-17.17l-11.91,0.04c-33.81,0.08-57.07-6.78-67.31-28.26
			c-10.45-21.9,5.08-45.43,37.96-54.21c28.87-7.72,57.89-0.95,68.42,17.06c-0.14,5.12-3.97,8.57-9.4,10.02
			c-6.29,1.68-14.87,0.58-23.63-9.67l-12.65-15.02l18.55,3.76c-13.75-0.44-24.55,1.24-33.13,3.53
			c-21.16,5.65-33.66,17.96-25.97,34.06c6.56,13.74,21.58,18.2,44.23,17.72l12.2-0.11c43.41-0.22,61.79,10.61,70.19,28.21
			c10.96,22.98-4.69,45.57-43.57,55.96c-30.59,8.18-59.79,1.69-69.85-16.68c0.52-4.98,3.4-8.42,9.69-10.1
			c6.86-1.83,14.48-0.72,23.34,9.74l12.65,15.02l-18.84-3.68c15,0.35,28.37-2.01,39.52-4.99
			C170.32,379.33,181.17,366.26,173.58,350.36z M114.89,324.65l-43.86-91.91l11.44-3.06l43.86,91.91L114.89,324.65z M114.61,324.72
			l11.44-3.06l44.78,93.84l-11.44,3.06L114.61,324.72z"/>
	</g>
</g>
</svg>
