<?xml version="1.0" encoding="utf-8"?>
<!-- Generator: Adobe Illustrator 24.0.2, SVG Export Plug-In . SVG Version: 6.00 Build 0)  -->
<svg version="1.1" id="Capa_1" xmlns="http://www.w3.org/2000/svg" xmlns:xlink="http://www.w3.org/1999/xlink" x="0px" y="0px"
	 viewBox="0 0 500 500" style="enable-background:new 0 0 500 500;" xml:space="preserve">
<style type="text/css">
	.st0{fill:#FFFFFF;stroke:#000000;stroke-width:9;stroke-miterlimit:10;}
</style>
<path class="st0" d="M90.7,218.6"/>
<path class="st0" d="M56.5,346.9c0,0,220,81.2,386-0.6v12.2c-183,79-386,0-386,0v-238l78,143l59-158l64,149l61-149l50,155l74-144
	v237"/>
<circle class="st0" cx="256.5" cy="305.5" r="16"/>
<circle class="st0" cx="369.5" cy="289.5" r="16"/>
<circle class="st0" cx="132.5" cy="294.5" r="16"/>
<path class="st0" d="M86.5,175.5c-1-1,46-121,46-121l41.9,102.1"/>
<polyline class="st0" points="214.1,153.4 261.5,42.5 300.6,149.3 "/>
<polyline class="st0" points="334.6,155.5 385.5,54.5 422.4,155.5 "/>
</svg>
