<?xml version="1.0" encoding="utf-8"?>
<!-- Generator: Adobe Illustrator 25.2.3, SVG Export Plug-In . SVG Version: 6.00 Build 0)  -->
<svg version="1.1" xmlns="http://www.w3.org/2000/svg" xmlns:xlink="http://www.w3.org/1999/xlink" x="0px" y="0px"
	 viewBox="0 0 500 500" style="enable-background:new 0 0 500 500;" xml:space="preserve">
<style type="text/css">
	.st0{fill:#E30613;}
	.st1{fill:none;stroke:#000000;stroke-width:14;stroke-miterlimit:10;}
</style>
<g id="Capa_3">
	<path class="st0" d="M41.51,457.78l7.83-54.94c0,0,62.56-11.11,50.87,51.36l-58.18,11.29L41.51,457.78z"/>
	<path class="st0" d="M112.24,451.67l112.2-21.14l10.57-79.67l-80.49,17.89l19.11-69.92l-78.46,28.46l18.7-77.28l-42.28,37.44
		l-18.7,102.44C52.89,389.88,123.63,388.25,112.24,451.67z"/>
	<polygon class="st0" points="131.76,232.15 343.41,46.79 391.11,95.31 178.1,286.63 113.06,308.58 	"/>
	<polygon class="st0" points="170.78,354.92 190.29,289.88 399.48,103.7 437.45,142.2 240.7,337.03 	"/>
	<polygon class="st0" points="235.01,417.52 246.39,343.54 446.11,150.85 481.35,186.63 235.01,421.59 	"/>
</g>
<g id="Capa_1">
	<path class="st1" d="M126.07,229.72L65.9,285c0,0-34.15,186.18-28.46,185.37c5.69-0.81,190.24-35.77,190.24-35.77l13.01-91.06
		l-78.05,18.7l20.33-70.73l-79.67,26.83L126.07,229.72L342.33,37.85l148.78,149.59L227.69,434.59"/>
	<path class="st1" d="M46.26,397.72c0,0,70.63-12.89,61.39,59.55"/>
	<line class="st1" x1="178.1" y1="293.14" x2="399.48" y2="95.31"/>
	<line class="st1" x1="240.7" y1="343.54" x2="446.11" y2="142.2"/>
	<g id="Capa_2">
	</g>
</g>
</svg>
