<?xml version="1.0" encoding="utf-8"?>
<!-- Generator: Adobe Illustrator 25.2.3, SVG Export Plug-In . SVG Version: 6.00 Build 0)  -->
<svg version="1.1" id="Capa_1" xmlns="http://www.w3.org/2000/svg" xmlns:xlink="http://www.w3.org/1999/xlink" x="0px" y="0px"
	 viewBox="0 0 500 500" style="enable-background:new 0 0 500 500;" xml:space="preserve">
<style type="text/css">
	.st0{fill:#FFFFFF;stroke:#000000;stroke-miterlimit:10;}
	.st1{fill:none;stroke:#000000;stroke-miterlimit:10;}
</style>
<polyline class="st0" points="48.02,208.58 48.02,472.8 453.71,472.8 453.71,208.58 "/>
<polyline class="st1" points="287.04,126.46 287.04,472.8 204.93,472.8 204.93,126.46 287.04,126.46 204.93,126.46 204.93,472.8 
	204.93,126.46 "/>
<path class="st0" d="M196.8,126.46c0,0-127.64-4.88-129.27-56.1c-1.63-51.22,137.4-58.54,137.4-58.54s38.93-3.25,45.07,43.9
	c0,0,63.87-67.58,152.49-43.95s-32.52,114.68-32.52,114.68"/>
<path class="st1" d="M204.93,105.33c0,0-89.43-9.12-88.62-38.71c0.81-29.58,88.62-11.7,88.62-11.7S247.2,84.19,204.93,105.33z"/>
<path class="st1" d="M266.72,77.44c0,0,81.3-53.94,124.39-41.22s-47.97,69.11-47.97,69.11S235.82,125.98,266.72,77.44z"/>
<rect x="30.13" y="126.46" class="st0" width="443.9" height="82.11"/>
<rect x="48.02" y="293.13" class="st1" width="405.69" height="66.67"/>
</svg>
