<?xml version="1.0" encoding="utf-8"?>
<!-- Generator: Adobe Illustrator 24.0.2, SVG Export Plug-In . SVG Version: 6.00 Build 0)  -->
<svg version="1.1" xmlns="http://www.w3.org/2000/svg" xmlns:xlink="http://www.w3.org/1999/xlink" x="0px" y="0px"
	 viewBox="0 0 500 500" style="enable-background:new 0 0 500 500;" xml:space="preserve">
<style type="text/css">
	.st0{stroke:#000000;stroke-miterlimit:10;}
	.st1{fill:none;stroke:#000000;stroke-miterlimit:10;}
	.st2{font-family:'MyriadPro-Regular';}
	.st3{font-size:168.1496px;}
</style>
<g id="Capa_2">
	<rect x="68.5" y="241.5" class="st0" width="360" height="9"/>
	<polyline class="st0" points="421.5,241.5 421.5,30.5 428.5,30.5 428.5,241.5 	"/>
	<polyline class="st0" points="68.5,241.5 68.5,30.5 74.5,30.5 74.5,241.5 	"/>
	<rect x="68.5" y="23.5" class="st0" width="360" height="7"/>
	<polygon class="st0" points="68.5,250.5 38.5,473.5 48.5,473.5 74.5,261.5 428.5,261.5 428.5,250.5 	"/>
	<polygon class="st0" points="421.5,261.5 434.5,378.5 442.5,473.5 450.5,473.5 428.5,261.5 	"/>
	<polygon class="st0" points="304.18,261.82 310.5,379.5 317.5,379.5 310.8,261.35 	"/>
	<polygon class="st0" points="352.5,261.5 362.5,379.5 372.5,379.5 358.5,261.5 	"/>
	<polygon class="st0" points="315.93,351.88 329.5,351.5 327.5,326.5 344.5,326.5 346.5,351.5 360.13,351.53 356,303.82 
		312.5,303.5 	"/>
	<polygon class="st0" points="38.5,473.5 450.5,473.5 449.98,468.5 39.17,468.5 	"/>
	<polygon class="st0" points="171.5,385.5 171.5,379.5 60.09,379 49.11,468.5 163.5,468.5 	"/>
	<polyline class="st0" points="171.5,385.5 435.09,385.5 434.5,378.5 171.5,379.5 	"/>
	<polygon class="st0" points="306.5,385.5 315.5,468.88 442.08,468.5 435.5,385.5 	"/>
</g>
<g id="Capa_1">
	<rect x="68.5" y="23.5" class="st1" width="360" height="227"/>
	<path class="st1" d="M68.5,250.5"/>
	<polyline class="st1" points="428.5,250.5 450.5,473.5 38.51,473 68.49,247.99 	"/>
	<rect x="74.5" y="30.5" class="st1" width="347" height="211"/>
	<polygon class="st1" points="73.06,261.5 59.5,379 310.8,379 305.38,261.5 	"/>
	<line class="st1" x1="70.84" y1="280.71" x2="306.26" y2="280.71"/>
	<line class="st1" x1="65.66" y1="325.6" x2="308.34" y2="325.6"/>
	<line class="st1" x1="62.67" y1="351.53" x2="309.53" y2="351.53"/>
	<line class="st1" x1="88.4" y1="261.5" x2="86.27" y2="281.53"/>
	<line class="st1" x1="96.91" y1="280.71" x2="95.21" y2="303.39"/>
	<line class="st1" x1="104.99" y1="303.39" x2="102.44" y2="325.6"/>
	<line class="st1" x1="91.1" y1="326" x2="88.34" y2="351.36"/>
	<line class="st1" x1="96.56" y1="351.88" x2="93.5" y2="379"/>
	<line class="st1" x1="267.07" y1="261.5" x2="267.07" y2="280.71"/>
	<polyline class="st1" points="274.72,280.71 274.72,303.68 283.68,303.68 283.68,325.6 	"/>
	<line class="st1" x1="68.23" y1="303.39" x2="274.64" y2="303.68"/>
	<line class="st1" x1="260.26" y1="325.6" x2="260.26" y2="351.53"/>
	<line class="st1" x1="135.62" y1="379" x2="137.75" y2="351.53"/>
	<line class="st1" x1="118.6" y1="351.53" x2="116.05" y2="379"/>
	<line class="st1" x1="264.51" y1="351.88" x2="264.51" y2="379"/>
	<line class="st1" x1="281.53" y1="351.53" x2="281.53" y2="379"/>
	<line class="st1" x1="295.14" y1="351.53" x2="295.43" y2="379"/>
	<line class="st1" x1="104.99" y1="261.5" x2="103.71" y2="280.71"/>
	<line class="st1" x1="120.3" y1="261.5" x2="120.07" y2="280.58"/>
	<line class="st1" x1="137.75" y1="261.5" x2="137.75" y2="280.58"/>
	<line class="st1" x1="154.34" y1="261.5" x2="154.34" y2="280.58"/>
	<line class="st1" x1="171.43" y1="261.5" x2="171.59" y2="280.58"/>
	<line class="st1" x1="188.55" y1="261.5" x2="188.55" y2="280.58"/>
	<line class="st1" x1="204.53" y1="261.5" x2="204.53" y2="280.58"/>
	<line class="st1" x1="219.85" y1="261.5" x2="219.85" y2="280.58"/>
	<line class="st1" x1="236.01" y1="261.5" x2="236.01" y2="280.71"/>
	<line class="st1" x1="250.9" y1="261.5" x2="250.9" y2="280.58"/>
	<line class="st1" x1="110.79" y1="280.58" x2="110.79" y2="303.16"/>
	<line class="st1" x1="128.81" y1="280.71" x2="128.81" y2="303.16"/>
	<line class="st1" x1="146.25" y1="280.58" x2="146.25" y2="303.39"/>
	<line class="st1" x1="163.7" y1="280.71" x2="163.46" y2="302.68"/>
	<line class="st1" x1="181.56" y1="280.71" x2="181.54" y2="302.68"/>
	<line class="st1" x1="197.3" y1="280.58" x2="197.3" y2="303.68"/>
	<line class="st1" x1="211.76" y1="280.58" x2="211.37" y2="303.68"/>
	<line class="st1" x1="226.74" y1="280.58" x2="226.73" y2="303.68"/>
	<line class="st1" x1="243.24" y1="280.58" x2="243" y2="303.68"/>
	<line class="st1" x1="258.56" y1="280.71" x2="258.37" y2="303.68"/>
	<line class="st1" x1="120.3" y1="303.39" x2="118.6" y2="325.6"/>
	<line class="st1" x1="137.75" y1="303.68" x2="136.68" y2="325.6"/>
	<line class="st1" x1="154.34" y1="303.39" x2="154.34" y2="325.6"/>
	<line class="st1" x1="171.59" y1="303.68" x2="171.43" y2="325.6"/>
	<line class="st1" x1="188.77" y1="303.68" x2="188.77" y2="325.6"/>
	<line class="st1" x1="204.53" y1="303.68" x2="204.53" y2="325.6"/>
	<line class="st1" x1="219.85" y1="303.68" x2="219.85" y2="325.6"/>
	<line class="st1" x1="236.01" y1="303.68" x2="236.01" y2="325.6"/>
	<line class="st1" x1="250.9" y1="303.68" x2="250.9" y2="325.6"/>
	<line class="st1" x1="267.07" y1="303.68" x2="267.41" y2="325.77"/>
	<line class="st1" x1="110.79" y1="325.77" x2="109.24" y2="351.53"/>
	<line class="st1" x1="128.81" y1="325.77" x2="128.81" y2="351.53"/>
	<line class="st1" x1="146.25" y1="325.6" x2="146.25" y2="351.53"/>
	<line class="st1" x1="163.46" y1="325.6" x2="163.46" y2="351.88"/>
	<line class="st1" x1="181.56" y1="325.6" x2="181.54" y2="351.88"/>
	<line class="st1" x1="197.3" y1="325.6" x2="197.3" y2="351.53"/>
	<line class="st1" x1="211.76" y1="325.77" x2="211.76" y2="351.53"/>
	<line class="st1" x1="226.74" y1="325.77" x2="226.74" y2="351.53"/>
	<polyline class="st1" points="243,325.77 243.24,351.53 243.24,379 	"/>
	<polygon class="st1" points="310.8,261.5 352.38,261.5 356,303.68 312.61,303.68 	"/>
	<line class="st1" x1="311.71" y1="282.59" x2="354.19" y2="282.59"/>
	<line class="st1" x1="325.77" y1="261.5" x2="327.9" y2="303.68"/>
	<line class="st1" x1="338.53" y1="261.5" x2="341.54" y2="303.68"/>
	<polygon class="st1" points="317.44,379 315.32,351.88 360.88,351.88 363,379 	"/>
	<polyline class="st1" points="332.09,379 329.92,352 328,326 344.3,326 346.22,352 348.34,379 	"/>
	<polygon class="st1" points="358.5,261.5 421.5,261.5 434.5,379.5 372.5,379.5 	"/>
	<line class="st1" x1="360.76" y1="280.58" x2="423.62" y2="280.71"/>
	<line class="st1" x1="363.5" y1="302.99" x2="410.96" y2="303.28"/>
	<line class="st1" x1="366.1" y1="325.6" x2="428.61" y2="326"/>
	<line class="st1" x1="369.16" y1="351.36" x2="416" y2="351.53"/>
	<polyline class="st1" points="375.24,261.5 377.59,280.58 387.25,351.36 	"/>
	<polyline class="st1" points="392.19,261.5 394.77,280.58 405.82,379.5 	"/>
	<polyline class="st1" points="405.82,261.5 408.18,280.58 419,379.5 	"/>
	<polygon class="st1" points="171.5,385.5 306.5,385.5 315.5,468.5 163.5,468.5 	"/>
	<line class="st1" x1="165.24" y1="450.47" x2="313.55" y2="450.47"/>
	<line class="st1" x1="239.5" y1="450.47" x2="239.5" y2="468.5"/>
	<text transform="matrix(1.1677 0 0 1 94 181.9629)" class="st2 st3">&lt;/&gt;</text>
</g>
</svg>
