<?xml version="1.0" encoding="utf-8"?>
<!-- Generator: Adobe Illustrator 25.2.3, SVG Export Plug-In . SVG Version: 6.00 Build 0)  -->
<svg version="1.1" id="Capa_1" xmlns="http://www.w3.org/2000/svg" xmlns:xlink="http://www.w3.org/1999/xlink" x="0px" y="0px"
	 viewBox="0 0 500 500" style="enable-background:new 0 0 500 500;" xml:space="preserve">
<style type="text/css">
	.st0{fill:none;stroke:#000000;stroke-miterlimit:10;}
</style>
<path class="st0" d="M34.32,445.53c0,0-17.79,0-24.2-22.07L149.6,287.59l21.35,18.62L34.32,445.53z"/>
<polyline class="st0" points="153.02,290.57 243.54,202.07 256.34,213.1 166.82,302.61 "/>
<path class="st0" d="M187.51,153.1l124.25,108.97c0,0-6.31,4.83-11.29,20s16.37,16.55,16.37,16.55s92.83-28.75,98.92-96.56
	c1.42-15.86-21.35-13.1-21.35-13.1l-116-103.45c0,0,7.83-6.21,8.54-18.62c0.71-12.41-30.6-12.41-30.6-12.41
	s-63.33,11.72-93.93,79.31S187.51,153.1,187.51,153.1z"/>
<path class="st0" d="M469.15,381.75c-1.33-0.36-2.67-0.71-4.01-1.05c-82.92-20.99-180.63,1.05-180.63,1.05v13.82l-24.31,8.13v14.63
	h228.46v-15.45l-20.33-7.9L469.15,381.75z"/>
</svg>
